<svg width="335" height="116" viewBox="0 0 335 116" fill="none" xmlns="http://www.w3.org/2000/svg">
<rect y="7.05225" width="335" height="108" rx="12" fill="url(#paint0_linear_11798_5099)"/>
<path d="M17.246 57.5028H28.852V58.5108H17.246V57.5028ZM16.728 62.5008H29.286V63.5088H16.728V62.5008ZM25.086 58.0348H26.164V69.4868H25.086V58.0348ZM20.102 58.0208H21.166V61.8988C21.166 62.5802 21.1286 63.2662 21.054 63.9568C20.9793 64.6475 20.8206 65.3242 20.578 65.9868C20.3446 66.6402 19.99 67.2702 19.514 67.8768C19.038 68.4742 18.3986 69.0248 17.596 69.5288C17.5306 69.4355 17.4513 69.3422 17.358 69.2488C17.2646 69.1555 17.162 69.0622 17.05 68.9688C16.9473 68.8755 16.8493 68.8008 16.756 68.7448C17.512 68.2782 18.114 67.7742 18.562 67.2328C19.01 66.6915 19.3413 66.1268 19.556 65.5388C19.78 64.9508 19.9246 64.3488 19.99 63.7328C20.0646 63.1168 20.102 62.5055 20.102 61.8988V58.0208ZM37.392 67.8908H42.292V68.8568H37.392V67.8908ZM36.86 63.7888H42.838V69.4308H41.788V64.7548H37.868V69.4868H36.86V63.7888ZM35.894 61.4508C36.454 61.4135 37.098 61.3762 37.826 61.3388C38.5633 61.3015 39.3426 61.2595 40.164 61.2128C40.9946 61.1568 41.8253 61.1008 42.656 61.0448L42.642 61.9968C41.8486 62.0528 41.0553 62.1135 40.262 62.1788C39.4686 62.2442 38.708 62.3002 37.98 62.3468C37.2613 62.3935 36.608 62.4402 36.02 62.4868L35.894 61.4508ZM40.542 59.1828L41.382 58.7628C41.6993 59.1455 42.0073 59.5655 42.306 60.0228C42.6046 60.4708 42.8753 60.9142 43.118 61.3528C43.3606 61.7822 43.538 62.1695 43.65 62.5148L42.74 63.0188C42.628 62.6735 42.4553 62.2768 42.222 61.8288C41.9886 61.3808 41.7273 60.9282 41.438 60.4708C41.1486 60.0135 40.85 59.5842 40.542 59.1828ZM38.624 56.5788L39.786 56.8308C39.59 57.3908 39.3753 57.9882 39.142 58.6228C38.918 59.2575 38.6846 59.8688 38.442 60.4568C38.1993 61.0448 37.966 61.5628 37.742 62.0108L36.86 61.7588C37.0186 61.4135 37.182 61.0262 37.35 60.5968C37.518 60.1675 37.6766 59.7195 37.826 59.2528C37.9846 58.7768 38.134 58.3148 38.274 57.8668C38.414 57.4095 38.5306 56.9802 38.624 56.5788ZM30.616 59.4908H35.236V60.4708H30.616V59.4908ZM32.744 56.5788L33.738 56.7048C33.598 57.3955 33.4393 58.1422 33.262 58.9448C33.0846 59.7382 32.898 60.5362 32.702 61.3388C32.5153 62.1415 32.3286 62.9115 32.142 63.6488C31.9553 64.3768 31.7826 65.0302 31.624 65.6088L30.742 65.1468C30.9006 64.6148 31.0686 63.9988 31.246 63.2988C31.4326 62.5895 31.6146 61.8428 31.792 61.0588C31.9693 60.2748 32.142 59.5002 32.31 58.7348C32.478 57.9602 32.6226 57.2415 32.744 56.5788ZM31.316 64.7128L31.89 63.9848C32.4126 64.2742 32.9493 64.6055 33.5 64.9788C34.06 65.3522 34.5733 65.7348 35.04 66.1268C35.5066 66.5188 35.88 66.8922 36.16 67.2468L35.53 68.0868C35.25 67.7415 34.8766 67.3682 34.41 66.9668C33.9526 66.5562 33.4533 66.1548 32.912 65.7628C32.3706 65.3615 31.8386 65.0115 31.316 64.7128ZM34.83 59.4908H35.012L35.194 59.4488L35.824 59.5888C35.7026 61.3902 35.4506 62.9395 35.068 64.2368C34.6853 65.5248 34.186 66.5982 33.57 67.4568C32.954 68.3155 32.212 69.0015 31.344 69.5148C31.2693 69.3842 31.1666 69.2348 31.036 69.0668C30.9146 68.8988 30.798 68.7635 30.686 68.6608C31.47 68.2502 32.1466 67.6482 32.716 66.8548C33.2946 66.0522 33.7613 65.0582 34.116 63.8728C34.48 62.6782 34.718 61.2875 34.83 59.7008V59.4908ZM45.652 57.7688H49.516V66.8688H45.652V65.9168H48.536V58.7208H45.652V57.7688ZM45.694 61.7868H48.9V62.7248H45.694V61.7868ZM45.134 57.7688H46.142V68.0028H45.134V57.7688ZM50.16 59.3928H57.468V60.4428H50.16V59.3928ZM54.696 56.6628H55.76V67.8908C55.76 68.2735 55.704 68.5535 55.592 68.7308C55.4893 68.9175 55.312 69.0528 55.06 69.1368C54.808 69.2302 54.4533 69.2862 53.996 69.3048C53.5386 69.3235 52.96 69.3328 52.26 69.3328C52.232 69.1835 52.1806 69.0015 52.106 68.7868C52.0313 68.5815 51.952 68.4042 51.868 68.2548C52.2413 68.2642 52.5913 68.2735 52.918 68.2828C53.254 68.2922 53.5433 68.2968 53.786 68.2968C54.0286 68.2875 54.2013 68.2782 54.304 68.2688C54.444 68.2688 54.542 68.2408 54.598 68.1848C54.6633 68.1288 54.696 68.0308 54.696 67.8908V56.6628ZM50.636 62.0248L51.504 61.5628C51.756 61.9175 52.022 62.3002 52.302 62.7108C52.582 63.1215 52.8433 63.5182 53.086 63.9008C53.338 64.2835 53.5433 64.6195 53.702 64.9088L52.778 65.4408C52.6286 65.1515 52.4326 64.8108 52.19 64.4188C51.9566 64.0175 51.7 63.6068 51.42 63.1868C51.1493 62.7668 50.888 62.3795 50.636 62.0248ZM59.274 59.7428H60.352V69.4728H59.274V59.7428ZM59.484 57.2788L60.296 56.7748C60.52 56.9708 60.744 57.1902 60.968 57.4328C61.192 57.6662 61.402 57.8995 61.598 58.1328C61.794 58.3662 61.9433 58.5808 62.046 58.7768L61.178 59.3368C61.066 59.1502 60.9166 58.9355 60.73 58.6928C60.5526 58.4502 60.352 58.2075 60.128 57.9648C59.9133 57.7128 59.6986 57.4842 59.484 57.2788ZM62.928 57.3768H70.292V58.3708H62.928V57.3768ZM69.704 57.3768H70.782V68.1988C70.782 68.4882 70.7446 68.7075 70.67 68.8568C70.6046 69.0155 70.4786 69.1415 70.292 69.2348C70.1053 69.3188 69.858 69.3655 69.55 69.3748C69.2513 69.3935 68.8873 69.4028 68.458 69.4028C68.43 69.2722 68.3833 69.1088 68.318 68.9128C68.262 68.7262 68.1966 68.5675 68.122 68.4368C68.4206 68.4462 68.696 68.4508 68.948 68.4508C69.2 68.4508 69.3726 68.4508 69.466 68.4508C69.5593 68.4415 69.62 68.4182 69.648 68.3808C69.6853 68.3435 69.704 68.2828 69.704 68.1988V57.3768ZM63.306 64.2228V66.1128H66.666V64.2228H63.306ZM63.306 61.4788V63.3408H66.666V61.4788H63.306ZM62.354 60.5968H67.66V66.9808H62.354V60.5968ZM79 60.7368C78.72 60.7368 78.4726 60.6435 78.258 60.4568C78.0433 60.2608 77.936 60.0042 77.936 59.6868C77.936 59.3695 78.0433 59.1175 78.258 58.9308C78.4726 58.7348 78.72 58.6368 79 58.6368C79.28 58.6368 79.5273 58.7348 79.742 58.9308C79.9566 59.1175 80.064 59.3695 80.064 59.6868C80.064 60.0042 79.9566 60.2608 79.742 60.4568C79.5273 60.6435 79.28 60.7368 79 60.7368ZM79 67.5968C78.72 67.5968 78.4726 67.5035 78.258 67.3168C78.0433 67.1208 77.936 66.8642 77.936 66.5468C77.936 66.2202 78.0433 65.9635 78.258 65.7768C78.4726 65.5808 78.72 65.4828 79 65.4828C79.28 65.4828 79.5273 65.5808 79.742 65.7768C79.9566 65.9635 80.064 66.2202 80.064 66.5468C80.064 66.8642 79.9566 67.1208 79.742 67.3168C79.5273 67.5035 79.28 67.5968 79 67.5968ZM87.0539 68.3528V67.458L90.4147 63.779C90.8092 63.3481 91.134 62.9736 91.3892 62.6554C91.6444 62.3339 91.8333 62.0323 91.9559 61.7506C92.0819 61.4655 92.1449 61.1672 92.1449 60.8557C92.1449 60.4977 92.0587 60.1878 91.8863 59.926C91.7173 59.6642 91.4853 59.462 91.1903 59.3195C90.8953 59.1769 90.5639 59.1057 90.196 59.1057C89.8049 59.1057 89.4635 59.1869 89.1718 59.3493C88.8835 59.5084 88.6598 59.7321 88.5007 60.0205C88.3449 60.3088 88.267 60.6469 88.267 61.0347H87.0937C87.0937 60.4381 87.2313 59.9144 87.5064 59.4636C87.7815 59.0129 88.156 58.6616 88.6299 58.4097C89.1072 58.1578 89.6425 58.0318 90.2358 58.0318C90.8324 58.0318 91.361 58.1578 91.8217 58.4097C92.2824 58.6616 92.6437 59.0013 92.9055 59.4288C93.1673 59.8564 93.2983 60.332 93.2983 60.8557C93.2983 61.2302 93.2303 61.5965 93.0944 61.9544C92.9619 62.309 92.7298 62.7051 92.3984 63.1426C92.0703 63.5768 91.6146 64.1071 91.0312 64.7335L88.7443 67.1795V67.2591H93.4772V68.3528H87.0539ZM98.8515 68.492C98.1025 68.492 97.4645 68.2882 96.9375 67.8805C96.4105 67.4696 96.0078 66.8746 95.7294 66.0957C95.451 65.3135 95.3118 64.3689 95.3118 63.2619C95.3118 62.1616 95.451 61.2219 95.7294 60.443C96.0111 59.6608 96.4155 59.0643 96.9424 58.6533C97.4727 58.239 98.1091 58.0318 98.8515 58.0318C99.594 58.0318 100.229 58.239 100.756 58.6533C101.286 59.0643 101.69 59.6608 101.969 60.443C102.25 61.2219 102.391 62.1616 102.391 63.2619C102.391 64.3689 102.252 65.3135 101.974 66.0957C101.695 66.8746 101.293 67.4696 100.766 67.8805C100.239 68.2882 99.6006 68.492 98.8515 68.492ZM98.8515 67.3983C99.594 67.3983 100.171 67.0403 100.582 66.3244C100.993 65.6085 101.198 64.5877 101.198 63.2619C101.198 62.3803 101.104 61.6296 100.915 61.0098C100.729 60.39 100.461 59.9177 100.109 59.5929C99.7613 59.2681 99.3421 59.1057 98.8515 59.1057C98.1157 59.1057 97.5407 59.4686 97.1264 60.1945C96.7121 60.917 96.5049 61.9395 96.5049 63.2619C96.5049 64.1436 96.5977 64.8926 96.7834 65.5091C96.969 66.1256 97.2358 66.5946 97.5838 66.9161C97.9351 67.2376 98.3577 67.3983 98.8515 67.3983ZM104.281 68.3528V67.458L107.641 63.779C108.036 63.3481 108.361 62.9736 108.616 62.6554C108.871 62.3339 109.06 62.0323 109.182 61.7506C109.308 61.4655 109.371 61.1672 109.371 60.8557C109.371 60.4977 109.285 60.1878 109.113 59.926C108.944 59.6642 108.712 59.462 108.417 59.3195C108.122 59.1769 107.79 59.1057 107.423 59.1057C107.031 59.1057 106.69 59.1869 106.398 59.3493C106.11 59.5084 105.886 59.7321 105.727 60.0205C105.571 60.3088 105.494 60.6469 105.494 61.0347H104.32C104.32 60.4381 104.458 59.9144 104.733 59.4636C105.008 59.0129 105.383 58.6616 105.857 58.4097C106.334 58.1578 106.869 58.0318 107.462 58.0318C108.059 58.0318 108.588 58.1578 109.048 58.4097C109.509 58.6616 109.87 59.0013 110.132 59.4288C110.394 59.8564 110.525 60.332 110.525 60.8557C110.525 61.2302 110.457 61.5965 110.321 61.9544C110.188 62.309 109.956 62.7051 109.625 63.1426C109.297 63.5768 108.841 64.1071 108.258 64.7335L105.971 67.1795V67.2591H110.704V68.3528H104.281ZM116.138 68.492C115.72 68.4854 115.303 68.4059 114.885 68.2534C114.467 68.101 114.086 67.8441 113.741 67.4828C113.397 67.1182 113.12 66.626 112.911 66.0063C112.702 65.3831 112.598 64.601 112.598 63.6597C112.598 62.7581 112.682 61.9594 112.852 61.2634C113.021 60.564 113.266 59.9757 113.587 59.4984C113.909 59.0179 114.297 58.6533 114.751 58.4047C115.208 58.1561 115.723 58.0318 116.297 58.0318C116.867 58.0318 117.374 58.1462 117.818 58.3749C118.266 58.6002 118.63 58.9151 118.912 59.3195C119.194 59.7238 119.376 60.1895 119.459 60.7165H118.246C118.133 60.2591 117.914 59.8796 117.589 59.578C117.265 59.2764 116.834 59.1256 116.297 59.1256C115.508 59.1256 114.887 59.4686 114.432 60.1547C113.982 60.8408 113.755 61.8036 113.751 63.0432H113.831C114.017 62.7615 114.237 62.5212 114.492 62.3223C114.751 62.1201 115.036 61.9643 115.347 61.855C115.659 61.7456 115.989 61.6909 116.337 61.6909C116.92 61.6909 117.454 61.8367 117.937 62.1284C118.421 62.4168 118.809 62.8161 119.101 63.3266C119.392 63.8337 119.538 64.4153 119.538 65.0716C119.538 65.7013 119.397 66.278 119.116 66.8017C118.834 67.3221 118.438 67.7364 117.928 68.0446C117.42 68.3495 116.824 68.4987 116.138 68.492ZM116.138 67.3983C116.555 67.3983 116.93 67.2939 117.261 67.0851C117.596 66.8763 117.86 66.5962 118.052 66.2449C118.247 65.8936 118.345 65.5025 118.345 65.0716C118.345 64.6507 118.251 64.2679 118.062 63.9232C117.876 63.5751 117.619 63.2984 117.291 63.0929C116.966 62.8874 116.595 62.7847 116.178 62.7847C115.863 62.7847 115.569 62.8476 115.298 62.9736C115.026 63.0962 114.787 63.2652 114.582 63.4807C114.379 63.6961 114.22 63.943 114.104 64.2215C113.988 64.4965 113.93 64.7866 113.93 65.0915C113.93 65.4958 114.025 65.8737 114.214 66.225C114.406 66.5763 114.668 66.8597 114.999 67.0751C115.334 67.2906 115.714 67.3983 116.138 67.3983ZM124.317 56.5368L125.381 56.8168C125.12 57.4982 124.812 58.1655 124.457 58.8188C124.112 59.4628 123.734 60.0648 123.323 60.6248C122.913 61.1755 122.488 61.6608 122.049 62.0808C121.984 62.0248 121.895 61.9548 121.783 61.8708C121.681 61.7775 121.569 61.6888 121.447 61.6048C121.335 61.5208 121.233 61.4555 121.139 61.4088C121.587 61.0168 122.007 60.5688 122.399 60.0648C122.801 59.5515 123.165 58.9962 123.491 58.3988C123.818 57.7922 124.093 57.1715 124.317 56.5368ZM124.107 58.2868H133.137V59.2948H123.589L124.107 58.2868ZM123.421 61.4508H132.815V62.4448H124.471V65.7488H123.421V61.4508ZM121.111 65.2308H133.795V66.2388H121.111V65.2308ZM127.607 58.8188H128.685V69.4728H127.607V58.8188ZM135.493 68.3528V67.458L138.854 63.779C139.249 63.3481 139.573 62.9736 139.829 62.6554C140.084 62.3339 140.273 62.0323 140.395 61.7506C140.521 61.4655 140.584 61.1672 140.584 60.8557C140.584 60.4977 140.498 60.1878 140.326 59.926C140.157 59.6642 139.925 59.462 139.63 59.3195C139.335 59.1769 139.003 59.1057 138.635 59.1057C138.244 59.1057 137.903 59.1869 137.611 59.3493C137.323 59.5084 137.099 59.7321 136.94 60.0205C136.784 60.3088 136.706 60.6469 136.706 61.0347H135.533C135.533 60.4381 135.671 59.9144 135.946 59.4636C136.221 59.0129 136.595 58.6616 137.069 58.4097C137.547 58.1578 138.082 58.0318 138.675 58.0318C139.272 58.0318 139.8 58.1578 140.261 58.4097C140.722 58.6616 141.083 59.0013 141.345 59.4288C141.607 59.8564 141.738 60.332 141.738 60.8557C141.738 61.2302 141.67 61.5965 141.534 61.9544C141.401 62.309 141.169 62.7051 140.838 63.1426C140.51 63.5768 140.054 64.1071 139.471 64.7335L137.184 67.1795V67.2591H141.917V68.3528H135.493ZM146.472 57.3348H153.766V58.3568H146.472V57.3348ZM146.472 60.7088H153.836V61.7028H146.472V60.7088ZM146.36 64.0828H153.766V65.1048H146.36V64.0828ZM145.814 57.3348H146.878V61.6468C146.878 62.2535 146.845 62.9022 146.78 63.5928C146.724 64.2835 146.603 64.9835 146.416 65.6928C146.229 66.3928 145.949 67.0695 145.576 67.7228C145.212 68.3762 144.727 68.9642 144.12 69.4868C144.073 69.4122 143.999 69.3235 143.896 69.2208C143.803 69.1182 143.705 69.0202 143.602 68.9268C143.499 68.8428 143.406 68.7775 143.322 68.7308C143.891 68.2268 144.339 67.6855 144.666 67.1068C145.002 66.5188 145.249 65.9122 145.408 65.2868C145.576 64.6615 145.683 64.0408 145.73 63.4248C145.786 62.7995 145.814 62.2068 145.814 61.6468V57.3348ZM153.304 57.3348H154.41V67.9188C154.41 68.2922 154.354 68.5768 154.242 68.7728C154.13 68.9688 153.943 69.1135 153.682 69.2068C153.411 69.3002 153.033 69.3562 152.548 69.3748C152.063 69.4028 151.447 69.4168 150.7 69.4168C150.681 69.3048 150.644 69.1835 150.588 69.0528C150.541 68.9222 150.485 68.7868 150.42 68.6468C150.364 68.5162 150.308 68.4042 150.252 68.3108C150.644 68.3202 151.017 68.3295 151.372 68.3388C151.736 68.3388 152.049 68.3388 152.31 68.3388C152.581 68.3295 152.767 68.3248 152.87 68.3248C153.038 68.3155 153.15 68.2828 153.206 68.2268C153.271 68.1615 153.304 68.0542 153.304 67.9048V57.3348ZM161.55 58.171V68.3528H160.317V59.4636H160.257L157.771 61.1142V59.8614L160.317 58.171H161.55ZM164.478 68.3528V67.458L167.839 63.779C168.233 63.3481 168.558 62.9736 168.813 62.6554C169.068 62.3339 169.257 62.0323 169.38 61.7506C169.506 61.4655 169.569 61.1672 169.569 60.8557C169.569 60.4977 169.483 60.1878 169.31 59.926C169.141 59.6642 168.909 59.462 168.614 59.3195C168.319 59.1769 167.988 59.1057 167.62 59.1057C167.229 59.1057 166.887 59.1869 166.596 59.3493C166.307 59.5084 166.084 59.7321 165.925 60.0205C165.769 60.3088 165.691 60.6469 165.691 61.0347H164.518C164.518 60.4381 164.655 59.9144 164.93 59.4636C165.205 59.0129 165.58 58.6616 166.054 58.4097C166.531 58.1578 167.066 58.0318 167.66 58.0318C168.256 58.0318 168.785 58.1578 169.246 58.4097C169.706 58.6616 170.068 59.0013 170.329 59.4288C170.591 59.8564 170.722 60.332 170.722 60.8557C170.722 61.2302 170.654 61.5965 170.518 61.9544C170.386 62.309 170.154 62.7051 169.822 63.1426C169.494 63.5768 169.038 64.1071 168.455 64.7335L166.168 67.1795V67.2591H170.901V68.3528H164.478ZM174.364 57.5448H183.548V69.2488H182.428V58.5948H175.442V69.3188H174.364V57.5448ZM175.092 62.3888H182.904V63.4248H175.092V62.3888ZM175.064 67.3588H182.918V68.4088H175.064V67.3588ZM190.534 58.171V68.3528H189.301V59.4636H189.241L186.755 61.1142V59.8614L189.301 58.171H190.534ZM196.724 68.492C196.041 68.492 195.438 68.3711 194.914 68.1291C194.393 67.8839 193.987 67.5474 193.696 67.1199C193.404 66.689 193.26 66.1985 193.263 65.6483C193.26 65.2174 193.344 64.8197 193.517 64.4551C193.689 64.0872 193.925 63.7806 194.223 63.5354C194.524 63.2868 194.861 63.1294 195.232 63.0631V63.0034C194.745 62.8775 194.357 62.604 194.069 62.1831C193.78 61.7589 193.638 61.2766 193.641 60.7364C193.638 60.2193 193.769 59.757 194.034 59.3493C194.299 58.9416 194.664 58.6201 195.128 58.3848C195.595 58.1495 196.127 58.0318 196.724 58.0318C197.313 58.0318 197.84 58.1495 198.304 58.3848C198.768 58.6201 199.133 58.9416 199.398 59.3493C199.667 59.757 199.803 60.2193 199.806 60.7364C199.803 61.2766 199.655 61.7589 199.363 62.1831C199.075 62.604 198.692 62.8775 198.215 63.0034V63.0631C198.583 63.1294 198.914 63.2868 199.209 63.5354C199.504 63.7806 199.74 64.0872 199.915 64.4551C200.091 64.8197 200.18 65.2174 200.184 65.6483C200.18 66.1985 200.031 66.689 199.736 67.1199C199.445 67.5474 199.039 67.8839 198.518 68.1291C198.001 68.3711 197.403 68.492 196.724 68.492ZM196.724 67.3983C197.184 67.3983 197.582 67.3237 197.917 67.1746C198.251 67.0254 198.51 66.815 198.692 66.5432C198.875 66.2714 198.967 65.9532 198.971 65.5886C198.967 65.2042 198.868 64.8644 198.672 64.5695C198.477 64.2745 198.21 64.0425 197.872 63.8734C197.537 63.7044 197.154 63.6199 196.724 63.6199C196.289 63.6199 195.902 63.7044 195.56 63.8734C195.222 64.0425 194.955 64.2745 194.76 64.5695C194.568 64.8644 194.473 65.2042 194.476 65.5886C194.473 65.9532 194.561 66.2714 194.74 66.5432C194.922 66.815 195.182 67.0254 195.52 67.1746C195.858 67.3237 196.259 67.3983 196.724 67.3983ZM196.724 62.5659C197.088 62.5659 197.411 62.493 197.693 62.3472C197.978 62.2013 198.202 61.9975 198.364 61.7357C198.527 61.4738 198.609 61.1672 198.613 60.8159C198.609 60.4712 198.528 60.1713 198.369 59.9161C198.21 59.6575 197.99 59.4587 197.708 59.3195C197.426 59.1769 197.098 59.1057 196.724 59.1057C196.342 59.1057 196.009 59.1769 195.724 59.3195C195.439 59.4587 195.219 59.6575 195.063 59.9161C194.907 60.1713 194.831 60.4712 194.834 60.8159C194.831 61.1672 194.909 61.4738 195.068 61.7357C195.23 61.9975 195.454 62.2013 195.739 62.3472C196.024 62.493 196.352 62.5659 196.724 62.5659ZM202.964 67.0503C202.719 67.0503 202.508 66.9625 202.333 66.7868C202.157 66.6111 202.069 66.4007 202.069 66.1554C202.069 65.9101 202.157 65.6997 202.333 65.524C202.508 65.3483 202.719 65.2605 202.964 65.2605C203.209 65.2605 203.42 65.3483 203.595 65.524C203.771 65.6997 203.859 65.9101 203.859 66.1554C203.859 66.3178 203.818 66.467 203.735 66.6028C203.655 66.7387 203.547 66.8481 203.412 66.931C203.279 67.0105 203.13 67.0503 202.964 67.0503ZM202.964 61.8997C202.719 61.8997 202.508 61.8119 202.333 61.6362C202.157 61.4606 202.069 61.2501 202.069 61.0048C202.069 60.7596 202.157 60.5491 202.333 60.3734C202.508 60.1978 202.719 60.1099 202.964 60.1099C203.209 60.1099 203.42 60.1978 203.595 60.3734C203.771 60.5491 203.859 60.7596 203.859 61.0048C203.859 61.1672 203.818 61.3164 203.735 61.4523C203.655 61.5882 203.547 61.6975 203.412 61.7804C203.279 61.8599 203.13 61.8997 202.964 61.8997ZM209.266 68.492C208.517 68.492 207.879 68.2882 207.352 67.8805C206.825 67.4696 206.422 66.8746 206.143 66.0957C205.865 65.3135 205.726 64.3689 205.726 63.2619C205.726 62.1616 205.865 61.2219 206.143 60.443C206.425 59.6608 206.83 59.0643 207.357 58.6533C207.887 58.239 208.523 58.0318 209.266 58.0318C210.008 58.0318 210.643 58.239 211.17 58.6533C211.7 59.0643 212.104 59.6608 212.383 60.443C212.665 61.2219 212.805 62.1616 212.805 63.2619C212.805 64.3689 212.666 65.3135 212.388 66.0957C212.109 66.8746 211.707 67.4696 211.18 67.8805C210.653 68.2882 210.015 68.492 209.266 68.492ZM209.266 67.3983C210.008 67.3983 210.585 67.0403 210.996 66.3244C211.407 65.6085 211.612 64.5877 211.612 63.2619C211.612 62.3803 211.518 61.6296 211.329 61.0098C211.143 60.39 210.875 59.9177 210.523 59.5929C210.175 59.2681 209.756 59.1057 209.266 59.1057C208.53 59.1057 207.955 59.4686 207.54 60.1945C207.126 60.917 206.919 61.9395 206.919 63.2619C206.919 64.1436 207.012 64.8926 207.197 65.5091C207.383 66.1256 207.65 66.5946 207.998 66.9161C208.349 67.2376 208.772 67.3983 209.266 67.3983ZM218.016 68.492C217.267 68.492 216.629 68.2882 216.102 67.8805C215.575 67.4696 215.172 66.8746 214.893 66.0957C214.615 65.3135 214.476 64.3689 214.476 63.2619C214.476 62.1616 214.615 61.2219 214.893 60.443C215.175 59.6608 215.58 59.0643 216.107 58.6533C216.637 58.239 217.273 58.0318 218.016 58.0318C218.758 58.0318 219.393 58.239 219.92 58.6533C220.45 59.0643 220.854 59.6608 221.133 60.443C221.415 61.2219 221.555 62.1616 221.555 63.2619C221.555 64.3689 221.416 65.3135 221.138 66.0957C220.859 66.8746 220.457 67.4696 219.93 67.8805C219.403 68.2882 218.765 68.492 218.016 68.492ZM218.016 67.3983C218.758 67.3983 219.335 67.0403 219.746 66.3244C220.157 65.6085 220.362 64.5877 220.362 63.2619C220.362 62.3803 220.268 61.6296 220.079 61.0098C219.893 60.39 219.625 59.9177 219.273 59.5929C218.925 59.2681 218.506 59.1057 218.016 59.1057C217.28 59.1057 216.705 59.4686 216.29 60.1945C215.876 60.917 215.669 61.9395 215.669 63.2619C215.669 64.1436 215.762 64.8926 215.947 65.5091C216.133 66.1256 216.4 66.5946 216.748 66.9161C217.099 67.2376 217.522 67.3983 218.016 67.3983ZM227.82 63.2619C227.82 62.0091 227.982 60.8573 228.307 59.8067C228.635 58.7527 229.102 57.7832 229.709 56.8983H230.743C230.504 57.2264 230.281 57.6308 230.072 58.1114C229.866 58.5886 229.686 59.114 229.53 59.6874C229.374 60.2574 229.251 60.8474 229.162 61.4572C229.076 62.0671 229.033 62.6687 229.033 63.2619C229.033 64.0508 229.109 64.8512 229.261 65.6632C229.414 66.4752 229.619 67.2293 229.878 67.9253C230.136 68.6213 230.425 69.1881 230.743 69.6256H229.709C229.102 68.7406 228.635 67.7728 228.307 66.7222C227.982 65.6682 227.82 64.5148 227.82 63.2619ZM239.315 58.171H240.548V64.9125C240.548 65.6085 240.384 66.23 240.056 66.7768C239.731 67.3204 239.272 67.7496 238.679 68.0645C238.085 68.376 237.389 68.5318 236.591 68.5318C235.792 68.5318 235.096 68.376 234.503 68.0645C233.909 67.7496 233.449 67.3204 233.121 66.7768C232.796 66.23 232.633 65.6085 232.633 64.9125V58.171H233.866V64.8131C233.866 65.3102 233.976 65.7527 234.194 66.1405C234.413 66.525 234.725 66.8282 235.129 67.0503C235.537 67.269 236.024 67.3784 236.591 67.3784C237.157 67.3784 237.645 67.269 238.052 67.0503C238.46 66.8282 238.772 66.525 238.987 66.1405C239.206 65.7527 239.315 65.3102 239.315 64.8131V58.171ZM242.453 59.2648V58.171H250.09V59.2648H246.888V68.3528H245.655V59.2648H242.453ZM259.762 61.3528H258.529C258.456 60.9982 258.329 60.6867 258.146 60.4182C257.967 60.1497 257.749 59.9243 257.49 59.742C257.235 59.5564 256.951 59.4172 256.64 59.3244C256.328 59.2316 256.004 59.1852 255.665 59.1852C255.049 59.1852 254.49 59.341 253.99 59.6526C253.493 59.9641 253.097 60.4232 252.802 61.0297C252.51 61.6362 252.364 62.3803 252.364 63.2619C252.364 64.1436 252.51 64.8876 252.802 65.4942C253.097 66.1007 253.493 66.5598 253.99 66.8713C254.49 67.1829 255.049 67.3386 255.665 67.3386C256.004 67.3386 256.328 67.2922 256.64 67.1994C256.951 67.1066 257.235 66.9691 257.49 66.7868C257.749 66.6012 257.967 66.3742 258.146 66.1057C258.329 65.8339 258.456 65.5224 258.529 65.171H259.762C259.669 65.6914 259.5 66.1571 259.255 66.568C259.01 66.979 258.705 67.3287 258.34 67.617C257.976 67.9021 257.566 68.1192 257.112 68.2683C256.661 68.4175 256.179 68.492 255.665 68.492C254.797 68.492 254.025 68.2799 253.349 67.8557C252.673 67.4314 252.141 66.8282 251.753 66.046C251.365 65.2638 251.171 64.3358 251.171 63.2619C251.171 62.1881 251.365 61.26 251.753 60.4778C252.141 59.6956 252.673 59.0924 253.349 58.6682C254.025 58.2439 254.797 58.0318 255.665 58.0318C256.179 58.0318 256.661 58.1064 257.112 58.2555C257.566 58.4047 257.976 58.6234 258.34 58.9118C258.705 59.1968 259.01 59.5448 259.255 59.9558C259.5 60.3635 259.669 60.8292 259.762 61.3528ZM264.578 66.5631V60.0006H265.692V66.5631H264.578ZM261.854 63.8386V62.725H268.416V63.8386H261.854ZM274.065 68.492C273.383 68.492 272.779 68.3711 272.256 68.1291C271.735 67.8839 271.329 67.5474 271.038 67.1199C270.746 66.689 270.602 66.1985 270.605 65.6483C270.602 65.2174 270.686 64.8197 270.859 64.4551C271.031 64.0872 271.266 63.7806 271.565 63.5354C271.866 63.2868 272.203 63.1294 272.574 63.0631V63.0034C272.087 62.8775 271.699 62.604 271.41 62.1831C271.122 61.7589 270.98 61.2766 270.983 60.7364C270.98 60.2193 271.111 59.757 271.376 59.3493C271.641 58.9416 272.005 58.6201 272.469 58.3848C272.937 58.1495 273.469 58.0318 274.065 58.0318C274.655 58.0318 275.182 58.1495 275.646 58.3848C276.11 58.6201 276.475 58.9416 276.74 59.3493C277.008 59.757 277.144 60.2193 277.148 60.7364C277.144 61.2766 276.997 61.7589 276.705 62.1831C276.417 62.604 276.034 62.8775 275.557 63.0034V63.0631C275.925 63.1294 276.256 63.2868 276.551 63.5354C276.846 63.7806 277.081 64.0872 277.257 64.4551C277.433 64.8197 277.522 65.2174 277.526 65.6483C277.522 66.1985 277.373 66.689 277.078 67.1199C276.786 67.5474 276.38 67.8839 275.86 68.1291C275.343 68.3711 274.745 68.492 274.065 68.492ZM274.065 67.3983C274.526 67.3983 274.924 67.3237 275.258 67.1746C275.593 67.0254 275.852 66.815 276.034 66.5432C276.216 66.2714 276.309 65.9532 276.312 65.5886C276.309 65.2042 276.21 64.8644 276.014 64.5695C275.819 64.2745 275.552 64.0425 275.214 63.8734C274.879 63.7044 274.496 63.6199 274.065 63.6199C273.631 63.6199 273.243 63.7044 272.902 63.8734C272.564 64.0425 272.297 64.2745 272.102 64.5695C271.909 64.8644 271.815 65.2042 271.818 65.5886C271.815 65.9532 271.903 66.2714 272.082 66.5432C272.264 66.815 272.524 67.0254 272.862 67.1746C273.2 67.3237 273.601 67.3983 274.065 67.3983ZM274.065 62.5659C274.43 62.5659 274.753 62.493 275.035 62.3472C275.32 62.2013 275.544 61.9975 275.706 61.7357C275.868 61.4738 275.951 61.1672 275.955 60.8159C275.951 60.4712 275.87 60.1713 275.711 59.9161C275.552 59.6575 275.331 59.4587 275.05 59.3195C274.768 59.1769 274.44 59.1057 274.065 59.1057C273.684 59.1057 273.351 59.1769 273.066 59.3195C272.781 59.4587 272.561 59.6575 272.405 59.9161C272.249 60.1713 272.173 60.4712 272.176 60.8159C272.173 61.1672 272.251 61.4738 272.41 61.7357C272.572 61.9975 272.796 62.2013 273.081 62.3472C273.366 62.493 273.694 62.5659 274.065 62.5659ZM281.956 63.2619C281.956 64.5148 281.792 65.6682 281.464 66.7222C281.139 67.7728 280.674 68.7406 280.067 69.6256H279.033C279.272 69.2974 279.494 68.8931 279.699 68.4125C279.908 67.9352 280.09 67.4116 280.246 66.8415C280.402 66.2681 280.523 65.6765 280.609 65.0666C280.699 64.4535 280.743 63.8519 280.743 63.2619C280.743 62.4731 280.667 61.6727 280.515 60.8607C280.362 60.0486 280.157 59.2946 279.898 58.5986C279.64 57.9026 279.351 57.3358 279.033 56.8983H280.067C280.674 57.7832 281.139 58.7527 281.464 59.8067C281.792 60.8573 281.956 62.0091 281.956 63.2619ZM16.882 89.7768C16.8726 89.7022 16.8446 89.6042 16.798 89.4828C16.7513 89.3522 16.7046 89.2215 16.658 89.0908C16.6206 88.9602 16.5786 88.8482 16.532 88.7548C16.6906 88.7268 16.8586 88.6335 17.036 88.4748C17.2133 88.3068 17.414 88.0968 17.638 87.8448C17.7593 87.7235 17.9366 87.5182 18.17 87.2288C18.4126 86.9395 18.6786 86.5988 18.968 86.2068C19.2573 85.8148 19.5513 85.3902 19.85 84.9328C20.1486 84.4755 20.424 84.0135 20.676 83.5468L21.642 84.1348C21.0446 85.0682 20.4006 85.9782 19.71 86.8648C19.0193 87.7515 18.324 88.5308 17.624 89.2028V89.2308C17.624 89.2308 17.5866 89.2495 17.512 89.2868C17.4373 89.3148 17.3486 89.3568 17.246 89.4128C17.1526 89.4688 17.0686 89.5295 16.994 89.5948C16.9193 89.6602 16.882 89.7208 16.882 89.7768ZM16.882 89.7768L16.84 88.8948L17.386 88.5308L21.572 87.8448C21.5626 87.9848 21.5626 88.1482 21.572 88.3348C21.5906 88.5122 21.6093 88.6568 21.628 88.7688C20.648 88.9462 19.8593 89.0908 19.262 89.2028C18.674 89.3148 18.2213 89.4035 17.904 89.4688C17.596 89.5342 17.3673 89.5902 17.218 89.6368C17.078 89.6835 16.966 89.7302 16.882 89.7768ZM16.784 86.3748C16.7653 86.3002 16.7326 86.1975 16.686 86.0668C16.6486 85.9362 16.6066 85.8055 16.56 85.6748C16.5133 85.5348 16.4666 85.4182 16.42 85.3248C16.5506 85.2968 16.6813 85.2082 16.812 85.0588C16.9426 84.9095 17.078 84.7228 17.218 84.4988C17.302 84.3868 17.4186 84.2048 17.568 83.9528C17.7173 83.6915 17.8853 83.3835 18.072 83.0288C18.2586 82.6742 18.4406 82.2962 18.618 81.8948C18.8046 81.4935 18.968 81.0875 19.108 80.6768L20.186 81.1248C19.9433 81.6848 19.6726 82.2448 19.374 82.8048C19.0846 83.3555 18.7813 83.8875 18.464 84.4008C18.1466 84.9048 17.8246 85.3622 17.498 85.7728V85.8008C17.498 85.8008 17.4606 85.8195 17.386 85.8568C17.3206 85.8942 17.2366 85.9455 17.134 86.0108C17.0406 86.0668 16.9566 86.1275 16.882 86.1928C16.8166 86.2582 16.784 86.3188 16.784 86.3748ZM16.784 86.3748L16.77 85.5908L17.302 85.2548L20.256 85.0028C20.228 85.1335 20.2046 85.2828 20.186 85.4508C20.1673 85.6188 20.158 85.7588 20.158 85.8708C19.4953 85.9455 18.954 86.0108 18.534 86.0668C18.114 86.1135 17.7873 86.1555 17.554 86.1928C17.33 86.2302 17.162 86.2628 17.05 86.2908C16.938 86.3188 16.8493 86.3468 16.784 86.3748ZM16.49 91.6108C16.9286 91.5362 17.4233 91.4475 17.974 91.3448C18.534 91.2328 19.122 91.1162 19.738 90.9948C20.3633 90.8642 20.984 90.7382 21.6 90.6168L21.684 91.5828C20.8066 91.7882 19.9246 91.9842 19.038 92.1708C18.1606 92.3575 17.372 92.5302 16.672 92.6888L16.49 91.6108ZM21.712 82.4688H29.202V83.4768H21.712V82.4688ZM22.062 85.6608H28.964V86.6688H22.062V85.6608ZM23 91.9048H28.068V92.8568H23V91.9048ZM24.946 80.5788H26.024V86.1788H24.946V80.5788ZM22.426 88.0968H28.614V93.4028H27.564V89.0488H23.448V93.4588H22.426V88.0968ZM31.064 82.0768H42.978V83.0708H31.064V82.0768ZM36.44 80.6068H37.518V93.4728H36.44V80.6068ZM36.328 88.0688L37.21 88.4748C36.874 88.9508 36.4773 89.4128 36.02 89.8608C35.572 90.3088 35.0866 90.7335 34.564 91.1348C34.0413 91.5268 33.5 91.8815 32.94 92.1988C32.38 92.5162 31.8293 92.7868 31.288 93.0108C31.2413 92.9175 31.1713 92.8148 31.078 92.7028C30.994 92.6002 30.9053 92.4975 30.812 92.3948C30.728 92.2922 30.644 92.2035 30.56 92.1288C31.1013 91.9422 31.6473 91.7088 32.198 91.4288C32.758 91.1395 33.29 90.8175 33.794 90.4628C34.3073 90.0988 34.7786 89.7162 35.208 89.3148C35.6466 88.9042 36.02 88.4888 36.328 88.0688ZM37.7 88.0968C38.1106 88.6568 38.6286 89.1982 39.254 89.7208C39.8793 90.2435 40.5606 90.7148 41.298 91.1348C42.0446 91.5455 42.7866 91.8722 43.524 92.1148C43.4493 92.1895 43.3606 92.2782 43.258 92.3808C43.1646 92.4835 43.076 92.5908 42.992 92.7028C42.908 92.8242 42.8333 92.9315 42.768 93.0248C42.0306 92.7355 41.2886 92.3575 40.542 91.8908C39.8046 91.4242 39.114 90.9015 38.47 90.3228C37.826 89.7348 37.28 89.1235 36.832 88.4888L37.7 88.0968ZM33.038 85.5348V87.6908H40.948V85.5348H33.038ZM32.03 84.5968H42.026V88.6288H32.03V84.5968ZM45.652 81.7688H49.516V90.8688H45.652V89.9168H48.536V82.7208H45.652V81.7688ZM45.694 85.7868H48.9V86.7248H45.694V85.7868ZM45.134 81.7688H46.142V92.0028H45.134V81.7688ZM50.16 83.3928H57.468V84.4428H50.16V83.3928ZM54.696 80.6628H55.76V91.8908C55.76 92.2735 55.704 92.5535 55.592 92.7308C55.4893 92.9175 55.312 93.0528 55.06 93.1368C54.808 93.2302 54.4533 93.2862 53.996 93.3048C53.5386 93.3235 52.96 93.3328 52.26 93.3328C52.232 93.1835 52.1806 93.0015 52.106 92.7868C52.0313 92.5815 51.952 92.4042 51.868 92.2548C52.2413 92.2642 52.5913 92.2735 52.918 92.2828C53.254 92.2922 53.5433 92.2968 53.786 92.2968C54.0286 92.2875 54.2013 92.2782 54.304 92.2688C54.444 92.2688 54.542 92.2408 54.598 92.1848C54.6633 92.1288 54.696 92.0308 54.696 91.8908V80.6628ZM50.636 86.0248L51.504 85.5628C51.756 85.9175 52.022 86.3002 52.302 86.7108C52.582 87.1215 52.8433 87.5182 53.086 87.9008C53.338 88.2835 53.5433 88.6195 53.702 88.9088L52.778 89.4408C52.6286 89.1515 52.4326 88.8108 52.19 88.4188C51.9566 88.0175 51.7 87.6068 51.42 87.1868C51.1493 86.7668 50.888 86.3795 50.636 86.0248ZM59.274 83.7428H60.352V93.4728H59.274V83.7428ZM59.484 81.2788L60.296 80.7748C60.52 80.9708 60.744 81.1902 60.968 81.4328C61.192 81.6662 61.402 81.8995 61.598 82.1328C61.794 82.3662 61.9433 82.5808 62.046 82.7768L61.178 83.3368C61.066 83.1502 60.9166 82.9355 60.73 82.6928C60.5526 82.4502 60.352 82.2075 60.128 81.9648C59.9133 81.7128 59.6986 81.4842 59.484 81.2788ZM62.928 81.3768H70.292V82.3708H62.928V81.3768ZM69.704 81.3768H70.782V92.1988C70.782 92.4882 70.7446 92.7075 70.67 92.8568C70.6046 93.0155 70.4786 93.1415 70.292 93.2348C70.1053 93.3188 69.858 93.3655 69.55 93.3748C69.2513 93.3935 68.8873 93.4028 68.458 93.4028C68.43 93.2722 68.3833 93.1088 68.318 92.9128C68.262 92.7262 68.1966 92.5675 68.122 92.4368C68.4206 92.4462 68.696 92.4508 68.948 92.4508C69.2 92.4508 69.3726 92.4508 69.466 92.4508C69.5593 92.4415 69.62 92.4182 69.648 92.3808C69.6853 92.3435 69.704 92.2828 69.704 92.1988V81.3768ZM63.306 88.2228V90.1128H66.666V88.2228H63.306ZM63.306 85.4788V87.3408H66.666V85.4788H63.306ZM62.354 84.5968H67.66V90.9808H62.354V84.5968ZM79 84.7368C78.72 84.7368 78.4726 84.6435 78.258 84.4568C78.0433 84.2608 77.936 84.0042 77.936 83.6868C77.936 83.3695 78.0433 83.1175 78.258 82.9308C78.4726 82.7348 78.72 82.6368 79 82.6368C79.28 82.6368 79.5273 82.7348 79.742 82.9308C79.9566 83.1175 80.064 83.3695 80.064 83.6868C80.064 84.0042 79.9566 84.2608 79.742 84.4568C79.5273 84.6435 79.28 84.7368 79 84.7368ZM79 91.5968C78.72 91.5968 78.4726 91.5035 78.258 91.3168C78.0433 91.1208 77.936 90.8642 77.936 90.5468C77.936 90.2202 78.0433 89.9635 78.258 89.7768C78.4726 89.5808 78.72 89.4828 79 89.4828C79.28 89.4828 79.5273 89.5808 79.742 89.7768C79.9566 89.9635 80.064 90.2202 80.064 90.5468C80.064 90.8642 79.9566 91.1208 79.742 91.3168C79.5273 91.5035 79.28 91.5968 79 91.5968ZM87.0539 92.3528V91.458L90.4147 87.779C90.8092 87.3481 91.134 86.9736 91.3892 86.6554C91.6444 86.3339 91.8333 86.0323 91.9559 85.7506C92.0819 85.4655 92.1449 85.1672 92.1449 84.8557C92.1449 84.4977 92.0587 84.1878 91.8863 83.926C91.7173 83.6642 91.4853 83.462 91.1903 83.3195C90.8953 83.1769 90.5639 83.1057 90.196 83.1057C89.8049 83.1057 89.4635 83.1869 89.1718 83.3493C88.8835 83.5084 88.6598 83.7321 88.5007 84.0205C88.3449 84.3088 88.267 84.6469 88.267 85.0347H87.0937C87.0937 84.4381 87.2313 83.9144 87.5064 83.4636C87.7815 83.0129 88.156 82.6616 88.6299 82.4097C89.1072 82.1578 89.6425 82.0318 90.2358 82.0318C90.8324 82.0318 91.361 82.1578 91.8217 82.4097C92.2824 82.6616 92.6437 83.0013 92.9055 83.4288C93.1673 83.8564 93.2983 84.332 93.2983 84.8557C93.2983 85.2302 93.2303 85.5965 93.0944 85.9544C92.9619 86.309 92.7298 86.7051 92.3984 87.1426C92.0703 87.5768 91.6146 88.1071 91.0312 88.7335L88.7443 91.1795V91.2591H93.4772V92.3528H87.0539ZM98.8515 92.492C98.1025 92.492 97.4645 92.2882 96.9375 91.8805C96.4105 91.4696 96.0078 90.8746 95.7294 90.0957C95.451 89.3135 95.3118 88.3689 95.3118 87.2619C95.3118 86.1616 95.451 85.2219 95.7294 84.443C96.0111 83.6608 96.4155 83.0643 96.9424 82.6533C97.4727 82.239 98.1091 82.0318 98.8515 82.0318C99.594 82.0318 100.229 82.239 100.756 82.6533C101.286 83.0643 101.69 83.6608 101.969 84.443C102.25 85.2219 102.391 86.1616 102.391 87.2619C102.391 88.3689 102.252 89.3135 101.974 90.0957C101.695 90.8746 101.293 91.4696 100.766 91.8805C100.239 92.2882 99.6006 92.492 98.8515 92.492ZM98.8515 91.3983C99.594 91.3983 100.171 91.0403 100.582 90.3244C100.993 89.6085 101.198 88.5877 101.198 87.2619C101.198 86.3803 101.104 85.6296 100.915 85.0098C100.729 84.39 100.461 83.9177 100.109 83.5929C99.7613 83.2681 99.3421 83.1057 98.8515 83.1057C98.1157 83.1057 97.5407 83.4686 97.1264 84.1945C96.7121 84.917 96.5049 85.9395 96.5049 87.2619C96.5049 88.1436 96.5977 88.8926 96.7834 89.5091C96.969 90.1256 97.2358 90.5946 97.5838 90.9161C97.9351 91.2376 98.3577 91.3983 98.8515 91.3983ZM104.281 92.3528V91.458L107.641 87.779C108.036 87.3481 108.361 86.9736 108.616 86.6554C108.871 86.3339 109.06 86.0323 109.182 85.7506C109.308 85.4655 109.371 85.1672 109.371 84.8557C109.371 84.4977 109.285 84.1878 109.113 83.926C108.944 83.6642 108.712 83.462 108.417 83.3195C108.122 83.1769 107.79 83.1057 107.423 83.1057C107.031 83.1057 106.69 83.1869 106.398 83.3493C106.11 83.5084 105.886 83.7321 105.727 84.0205C105.571 84.3088 105.494 84.6469 105.494 85.0347H104.32C104.32 84.4381 104.458 83.9144 104.733 83.4636C105.008 83.0129 105.383 82.6616 105.857 82.4097C106.334 82.1578 106.869 82.0318 107.462 82.0318C108.059 82.0318 108.588 82.1578 109.048 82.4097C109.509 82.6616 109.87 83.0013 110.132 83.4288C110.394 83.8564 110.525 84.332 110.525 84.8557C110.525 85.2302 110.457 85.5965 110.321 85.9544C110.188 86.309 109.956 86.7051 109.625 87.1426C109.297 87.5768 108.841 88.1071 108.258 88.7335L105.971 91.1795V91.2591H110.704V92.3528H104.281ZM116.138 92.492C115.72 92.4854 115.303 92.4059 114.885 92.2534C114.467 92.101 114.086 91.8441 113.741 91.4828C113.397 91.1182 113.12 90.626 112.911 90.0063C112.702 89.3831 112.598 88.601 112.598 87.6597C112.598 86.7581 112.682 85.9594 112.852 85.2634C113.021 84.564 113.266 83.9757 113.587 83.4984C113.909 83.0179 114.297 82.6533 114.751 82.4047C115.208 82.1561 115.723 82.0318 116.297 82.0318C116.867 82.0318 117.374 82.1462 117.818 82.3749C118.266 82.6002 118.63 82.9151 118.912 83.3195C119.194 83.7238 119.376 84.1895 119.459 84.7165H118.246C118.133 84.2591 117.914 83.8796 117.589 83.578C117.265 83.2764 116.834 83.1256 116.297 83.1256C115.508 83.1256 114.887 83.4686 114.432 84.1547C113.982 84.8408 113.755 85.8036 113.751 87.0432H113.831C114.017 86.7615 114.237 86.5212 114.492 86.3223C114.751 86.1201 115.036 85.9643 115.347 85.855C115.659 85.7456 115.989 85.6909 116.337 85.6909C116.92 85.6909 117.454 85.8367 117.937 86.1284C118.421 86.4168 118.809 86.8161 119.101 87.3266C119.392 87.8337 119.538 88.4153 119.538 89.0716C119.538 89.7013 119.397 90.278 119.116 90.8017C118.834 91.3221 118.438 91.7364 117.928 92.0446C117.42 92.3495 116.824 92.4987 116.138 92.492ZM116.138 91.3983C116.555 91.3983 116.93 91.2939 117.261 91.0851C117.596 90.8763 117.86 90.5962 118.052 90.2449C118.247 89.8936 118.345 89.5025 118.345 89.0716C118.345 88.6507 118.251 88.2679 118.062 87.9232C117.876 87.5751 117.619 87.2984 117.291 87.0929C116.966 86.8874 116.595 86.7847 116.178 86.7847C115.863 86.7847 115.569 86.8476 115.298 86.9736C115.026 87.0962 114.787 87.2652 114.582 87.4807C114.379 87.6961 114.22 87.943 114.104 88.2215C113.988 88.4965 113.93 88.7866 113.93 89.0915C113.93 89.4958 114.025 89.8737 114.214 90.225C114.406 90.5763 114.668 90.8597 114.999 91.0751C115.334 91.2906 115.714 91.3983 116.138 91.3983ZM124.317 80.5368L125.381 80.8168C125.12 81.4982 124.812 82.1655 124.457 82.8188C124.112 83.4628 123.734 84.0648 123.323 84.6248C122.913 85.1755 122.488 85.6608 122.049 86.0808C121.984 86.0248 121.895 85.9548 121.783 85.8708C121.681 85.7775 121.569 85.6888 121.447 85.6048C121.335 85.5208 121.233 85.4555 121.139 85.4088C121.587 85.0168 122.007 84.5688 122.399 84.0648C122.801 83.5515 123.165 82.9962 123.491 82.3988C123.818 81.7922 124.093 81.1715 124.317 80.5368ZM124.107 82.2868H133.137V83.2948H123.589L124.107 82.2868ZM123.421 85.4508H132.815V86.4448H124.471V89.7488H123.421V85.4508ZM121.111 89.2308H133.795V90.2388H121.111V89.2308ZM127.607 82.8188H128.685V93.4728H127.607V82.8188ZM135.493 92.3528V91.458L138.854 87.779C139.249 87.3481 139.573 86.9736 139.829 86.6554C140.084 86.3339 140.273 86.0323 140.395 85.7506C140.521 85.4655 140.584 85.1672 140.584 84.8557C140.584 84.4977 140.498 84.1878 140.326 83.926C140.157 83.6642 139.925 83.462 139.63 83.3195C139.335 83.1769 139.003 83.1057 138.635 83.1057C138.244 83.1057 137.903 83.1869 137.611 83.3493C137.323 83.5084 137.099 83.7321 136.94 84.0205C136.784 84.3088 136.706 84.6469 136.706 85.0347H135.533C135.533 84.4381 135.671 83.9144 135.946 83.4636C136.221 83.0129 136.595 82.6616 137.069 82.4097C137.547 82.1578 138.082 82.0318 138.675 82.0318C139.272 82.0318 139.8 82.1578 140.261 82.4097C140.722 82.6616 141.083 83.0013 141.345 83.4288C141.607 83.8564 141.738 84.332 141.738 84.8557C141.738 85.2302 141.67 85.5965 141.534 85.9544C141.401 86.309 141.169 86.7051 140.838 87.1426C140.51 87.5768 140.054 88.1071 139.471 88.7335L137.184 91.1795V91.2591H141.917V92.3528H135.493ZM146.472 81.3348H153.766V82.3568H146.472V81.3348ZM146.472 84.7088H153.836V85.7028H146.472V84.7088ZM146.36 88.0828H153.766V89.1048H146.36V88.0828ZM145.814 81.3348H146.878V85.6468C146.878 86.2535 146.845 86.9022 146.78 87.5928C146.724 88.2835 146.603 88.9835 146.416 89.6928C146.229 90.3928 145.949 91.0695 145.576 91.7228C145.212 92.3762 144.727 92.9642 144.12 93.4868C144.073 93.4122 143.999 93.3235 143.896 93.2208C143.803 93.1182 143.705 93.0202 143.602 92.9268C143.499 92.8428 143.406 92.7775 143.322 92.7308C143.891 92.2268 144.339 91.6855 144.666 91.1068C145.002 90.5188 145.249 89.9122 145.408 89.2868C145.576 88.6615 145.683 88.0408 145.73 87.4248C145.786 86.7995 145.814 86.2068 145.814 85.6468V81.3348ZM153.304 81.3348H154.41V91.9188C154.41 92.2922 154.354 92.5768 154.242 92.7728C154.13 92.9688 153.943 93.1135 153.682 93.2068C153.411 93.3002 153.033 93.3562 152.548 93.3748C152.063 93.4028 151.447 93.4168 150.7 93.4168C150.681 93.3048 150.644 93.1835 150.588 93.0528C150.541 92.9222 150.485 92.7868 150.42 92.6468C150.364 92.5162 150.308 92.4042 150.252 92.3108C150.644 92.3202 151.017 92.3295 151.372 92.3388C151.736 92.3388 152.049 92.3388 152.31 92.3388C152.581 92.3295 152.767 92.3248 152.87 92.3248C153.038 92.3155 153.15 92.2828 153.206 92.2268C153.271 92.1615 153.304 92.0542 153.304 91.9048V81.3348ZM157.97 92.3528V91.458L161.331 87.779C161.725 87.3481 162.05 86.9736 162.305 86.6554C162.56 86.3339 162.749 86.0323 162.872 85.7506C162.998 85.4655 163.061 85.1672 163.061 84.8557C163.061 84.4977 162.975 84.1878 162.802 83.926C162.633 83.6642 162.401 83.462 162.106 83.3195C161.811 83.1769 161.48 83.1057 161.112 83.1057C160.721 83.1057 160.38 83.1869 160.088 83.3493C159.8 83.5084 159.576 83.7321 159.417 84.0205C159.261 84.3088 159.183 84.6469 159.183 85.0347H158.01C158.01 84.4381 158.147 83.9144 158.422 83.4636C158.697 83.0129 159.072 82.6616 159.546 82.4097C160.023 82.1578 160.559 82.0318 161.152 82.0318C161.748 82.0318 162.277 82.1578 162.738 82.4097C163.198 82.6616 163.56 83.0013 163.822 83.4288C164.083 83.8564 164.214 84.332 164.214 84.8557C164.214 85.2302 164.146 85.5965 164.01 85.9544C163.878 86.309 163.646 86.7051 163.314 87.1426C162.986 87.5768 162.531 88.1071 161.947 88.7335L159.66 91.1795V91.2591H164.393V92.3528H157.97ZM169.827 92.492C169.41 92.4854 168.992 92.4059 168.574 92.2534C168.157 92.101 167.776 91.8441 167.431 91.4828C167.086 91.1182 166.809 90.626 166.601 90.0063C166.392 89.3831 166.287 88.601 166.287 87.6597C166.287 86.7581 166.372 85.9594 166.541 85.2634C166.71 84.564 166.955 83.9757 167.277 83.4984C167.598 83.0179 167.986 82.6533 168.44 82.4047C168.898 82.1561 169.413 82.0318 169.986 82.0318C170.556 82.0318 171.063 82.1462 171.508 82.3749C171.955 82.6002 172.32 82.9151 172.601 83.3195C172.883 83.7238 173.065 84.1895 173.148 84.7165H171.935C171.822 84.2591 171.604 83.8796 171.279 83.578C170.954 83.2764 170.523 83.1256 169.986 83.1256C169.197 83.1256 168.576 83.4686 168.122 84.1547C167.671 84.8408 167.444 85.8036 167.441 87.0432H167.52C167.706 86.7615 167.926 86.5212 168.182 86.3223C168.44 86.1201 168.725 85.9643 169.037 85.855C169.348 85.7456 169.678 85.6909 170.026 85.6909C170.609 85.6909 171.143 85.8367 171.627 86.1284C172.111 86.4168 172.499 86.8161 172.79 87.3266C173.082 87.8337 173.228 88.4153 173.228 89.0716C173.228 89.7013 173.087 90.278 172.805 90.8017C172.523 91.3221 172.127 91.7364 171.617 92.0446C171.11 92.3495 170.513 92.4987 169.827 92.492ZM169.827 91.3983C170.245 91.3983 170.619 91.2939 170.951 91.0851C171.286 90.8763 171.549 90.5962 171.741 90.2449C171.937 89.8936 172.035 89.5025 172.035 89.0716C172.035 88.6507 171.94 88.2679 171.751 87.9232C171.566 87.5751 171.309 87.2984 170.981 87.0929C170.656 86.8874 170.285 86.7847 169.867 86.7847C169.552 86.7847 169.259 86.8476 168.987 86.9736C168.715 87.0962 168.477 87.2652 168.271 87.4807C168.069 87.6961 167.91 87.943 167.794 88.2215C167.678 88.4965 167.62 88.7866 167.62 89.0915C167.62 89.4958 167.714 89.8737 167.903 90.225C168.095 90.5763 168.357 90.8597 168.689 91.0751C169.023 91.2906 169.403 91.3983 169.827 91.3983ZM176.593 81.5448H185.777V93.2488H184.657V82.5948H177.671V93.3188H176.593V81.5448ZM177.321 86.3888H185.133V87.4248H177.321V86.3888ZM177.293 91.3588H185.147V92.4088H177.293V91.3588ZM189.183 92.3528V91.458L192.544 87.779C192.938 87.3481 193.263 86.9736 193.518 86.6554C193.773 86.3339 193.962 86.0323 194.085 85.7506C194.211 85.4655 194.274 85.1672 194.274 84.8557C194.274 84.4977 194.188 84.1878 194.015 83.926C193.846 83.6642 193.614 83.462 193.319 83.3195C193.024 83.1769 192.693 83.1057 192.325 83.1057C191.934 83.1057 191.592 83.1869 191.301 83.3493C191.012 83.5084 190.789 83.7321 190.63 84.0205C190.474 84.3088 190.396 84.6469 190.396 85.0347H189.223C189.223 84.4381 189.36 83.9144 189.635 83.4636C189.91 83.0129 190.285 82.6616 190.759 82.4097C191.236 82.1578 191.771 82.0318 192.365 82.0318C192.961 82.0318 193.49 82.1578 193.951 82.4097C194.411 82.6616 194.773 83.0013 195.034 83.4288C195.296 83.8564 195.427 84.332 195.427 84.8557C195.427 85.2302 195.359 85.5965 195.223 85.9544C195.091 86.309 194.859 86.7051 194.527 87.1426C194.199 87.5768 193.743 88.1071 193.16 88.7335L190.873 91.1795V91.2591H195.606V92.3528H189.183ZM201.1 92.492C200.444 92.492 199.859 92.3794 199.345 92.154C198.834 91.9286 198.428 91.6154 198.127 91.2143C197.828 90.81 197.666 90.341 197.64 89.8074H198.892C198.919 90.1355 199.032 90.4189 199.23 90.6575C199.429 90.8929 199.689 91.0751 200.011 91.2044C200.332 91.3337 200.689 91.3983 201.08 91.3983C201.517 91.3983 201.905 91.3221 202.243 91.1696C202.581 91.0171 202.846 90.805 203.039 90.5332C203.231 90.2615 203.327 89.9466 203.327 89.5886C203.327 89.2141 203.234 88.8843 203.049 88.5993C202.863 88.3109 202.591 88.0856 202.233 87.9232C201.875 87.7608 201.438 87.6795 200.921 87.6795H200.105V86.5858H200.921C201.325 86.5858 201.68 86.5129 201.985 86.367C202.293 86.2212 202.533 86.0157 202.706 85.7506C202.881 85.4854 202.969 85.1739 202.969 84.8159C202.969 84.4712 202.893 84.1713 202.74 83.9161C202.588 83.6608 202.372 83.462 202.094 83.3195C201.819 83.1769 201.494 83.1057 201.12 83.1057C200.768 83.1057 200.437 83.1703 200.125 83.2996C199.817 83.4255 199.565 83.6095 199.37 83.8514C199.174 84.0901 199.068 84.3784 199.051 84.7165H197.858C197.878 84.1829 198.039 83.7155 198.341 83.3145C198.642 82.9101 199.037 82.5953 199.524 82.3699C200.014 82.1445 200.553 82.0318 201.14 82.0318C201.769 82.0318 202.31 82.1594 202.76 82.4146C203.211 82.6665 203.557 82.9996 203.799 83.4139C204.041 83.8282 204.162 84.2757 204.162 84.7563C204.162 85.3296 204.011 85.8185 203.71 86.2229C203.412 86.6272 203.006 86.9073 202.492 87.0631V87.1426C203.135 87.2487 203.637 87.5221 203.998 87.9629C204.359 88.4004 204.54 88.9423 204.54 89.5886C204.54 90.1421 204.389 90.6393 204.088 91.0801C203.789 91.5176 203.382 91.8623 202.865 92.1142C202.348 92.3661 201.759 92.492 201.1 92.492ZM207.448 91.0503C207.203 91.0503 206.993 90.9625 206.817 90.7868C206.641 90.6111 206.554 90.4007 206.554 90.1554C206.554 89.9101 206.641 89.6997 206.817 89.524C206.993 89.3483 207.203 89.2605 207.448 89.2605C207.694 89.2605 207.904 89.3483 208.08 89.524C208.256 89.6997 208.343 89.9101 208.343 90.1554C208.343 90.3178 208.302 90.467 208.219 90.6028C208.14 90.7387 208.032 90.8481 207.896 90.931C207.763 91.0105 207.614 91.0503 207.448 91.0503ZM207.448 85.8997C207.203 85.8997 206.993 85.8119 206.817 85.6362C206.641 85.4606 206.554 85.2501 206.554 85.0048C206.554 84.7596 206.641 84.5491 206.817 84.3734C206.993 84.1978 207.203 84.1099 207.448 84.1099C207.694 84.1099 207.904 84.1978 208.08 84.3734C208.256 84.5491 208.343 84.7596 208.343 85.0048C208.343 85.1672 208.302 85.3164 208.219 85.4523C208.14 85.5882 208.032 85.6975 207.896 85.7804C207.763 85.8599 207.614 85.8997 207.448 85.8997ZM213.611 92.492C213.027 92.492 212.502 92.376 212.035 92.144C211.567 91.912 211.193 91.5938 210.911 91.1895C210.629 90.7851 210.475 90.3244 210.449 89.8074H211.642C211.688 90.2681 211.897 90.6492 212.268 90.9509C212.643 91.2492 213.09 91.3983 213.611 91.3983C214.028 91.3983 214.4 91.3005 214.724 91.105C215.053 90.9094 215.309 90.641 215.495 90.2996C215.684 89.9549 215.778 89.5654 215.778 89.1313C215.778 88.6871 215.681 88.2911 215.485 87.943C215.293 87.5917 215.028 87.315 214.69 87.1128C214.352 86.9106 213.965 86.8079 213.531 86.8045C213.22 86.8012 212.9 86.8493 212.572 86.9487C212.244 87.0448 211.973 87.1691 211.761 87.3216L210.608 87.1824L211.224 82.171H216.514V83.2648H212.258L211.901 86.2676H211.96C212.169 86.1019 212.431 85.9643 212.746 85.855C213.061 85.7456 213.389 85.6909 213.73 85.6909C214.353 85.6909 214.908 85.8401 215.396 86.1384C215.886 86.4333 216.271 86.8377 216.549 87.3514C216.831 87.8652 216.972 88.4518 216.972 89.1114C216.972 89.761 216.826 90.341 216.534 90.8514C216.246 91.3585 215.848 91.7596 215.341 92.0545C214.834 92.3462 214.257 92.492 213.611 92.492ZM222.188 82.0318C222.606 82.0351 223.023 82.1147 223.441 82.2705C223.858 82.4262 224.24 82.6848 224.584 83.046C224.929 83.404 225.206 83.8929 225.415 84.5126C225.623 85.1324 225.728 85.9097 225.728 86.8443C225.728 87.7492 225.642 88.5529 225.469 89.2555C225.3 89.9549 225.055 90.5448 224.733 91.0254C224.415 91.506 224.027 91.8706 223.57 92.1192C223.116 92.3678 222.602 92.492 222.029 92.492C221.459 92.492 220.95 92.3794 220.503 92.154C220.059 91.9253 219.694 91.6088 219.409 91.2044C219.127 90.7967 218.947 90.3244 218.867 89.7875H220.08C220.189 90.2548 220.407 90.641 220.731 90.9459C221.059 91.2475 221.492 91.3983 222.029 91.3983C222.814 91.3983 223.434 91.0553 223.888 90.3692C224.346 89.6831 224.574 88.7136 224.574 87.4608H224.495C224.309 87.7392 224.089 87.9795 223.834 88.1817C223.578 88.3839 223.295 88.5396 222.983 88.649C222.672 88.7584 222.34 88.8131 221.989 88.8131C221.406 88.8131 220.871 88.6689 220.383 88.3805C219.899 88.0889 219.512 87.6895 219.22 87.1824C218.932 86.672 218.787 86.0886 218.787 85.4324C218.787 84.8093 218.927 84.2392 219.205 83.7222C219.487 83.2018 219.881 82.7875 220.388 82.4793C220.899 82.171 221.499 82.0219 222.188 82.0318ZM222.188 83.1256C221.77 83.1256 221.394 83.23 221.059 83.4388C220.728 83.6443 220.465 83.9227 220.269 84.274C220.077 84.622 219.981 85.0081 219.981 85.4324C219.981 85.8566 220.073 86.2428 220.259 86.5908C220.448 86.9355 220.705 87.2106 221.03 87.4161C221.358 87.6182 221.731 87.7193 222.148 87.7193C222.463 87.7193 222.756 87.658 223.028 87.5354C223.3 87.4094 223.537 87.2387 223.739 87.0233C223.945 86.8045 224.105 86.5576 224.221 86.2825C224.337 86.0041 224.395 85.7141 224.395 85.4125C224.395 85.0148 224.299 84.6419 224.107 84.2939C223.918 83.9459 223.656 83.6642 223.322 83.4487C222.99 83.2333 222.612 83.1256 222.188 83.1256ZM232.058 87.2619C232.058 86.0091 232.22 84.8573 232.545 83.8067C232.873 82.7527 233.341 81.7832 233.947 80.8983H234.981C234.743 81.2264 234.519 81.6308 234.31 82.1114C234.104 82.5886 233.924 83.114 233.768 83.6874C233.612 84.2574 233.49 84.8474 233.4 85.4572C233.314 86.0671 233.271 86.6687 233.271 87.2619C233.271 88.0508 233.347 88.8512 233.5 89.6632C233.652 90.4752 233.858 91.2293 234.116 91.9253C234.375 92.6213 234.663 93.1881 234.981 93.6256H233.947C233.341 92.7406 232.873 91.7728 232.545 90.7222C232.22 89.6682 232.058 88.5148 232.058 87.2619ZM243.553 82.171H244.786V88.9125C244.786 89.6085 244.622 90.23 244.294 90.7768C243.969 91.3204 243.51 91.7496 242.917 92.0645C242.324 92.376 241.628 92.5318 240.829 92.5318C240.03 92.5318 239.334 92.376 238.741 92.0645C238.148 91.7496 237.687 91.3204 237.359 90.7768C237.034 90.23 236.872 89.6085 236.872 88.9125V82.171H238.105V88.8131C238.105 89.3102 238.214 89.7527 238.433 90.1405C238.651 90.525 238.963 90.8282 239.367 91.0503C239.775 91.269 240.262 91.3784 240.829 91.3784C241.396 91.3784 241.883 91.269 242.291 91.0503C242.698 90.8282 243.01 90.525 243.225 90.1405C243.444 89.7527 243.553 89.3102 243.553 88.8131V82.171ZM246.692 83.2648V82.171H254.328V83.2648H251.126V92.3528H249.893V83.2648H246.692ZM264 85.3528H262.767C262.694 84.9982 262.567 84.6867 262.385 84.4182C262.206 84.1497 261.987 83.9243 261.728 83.742C261.473 83.5564 261.19 83.4172 260.878 83.3244C260.567 83.2316 260.242 83.1852 259.904 83.1852C259.287 83.1852 258.729 83.341 258.228 83.6526C257.731 83.9641 257.335 84.4232 257.04 85.0297C256.748 85.6362 256.603 86.3803 256.603 87.2619C256.603 88.1436 256.748 88.8876 257.04 89.4942C257.335 90.1007 257.731 90.5598 258.228 90.8713C258.729 91.1829 259.287 91.3386 259.904 91.3386C260.242 91.3386 260.567 91.2922 260.878 91.1994C261.19 91.1066 261.473 90.9691 261.728 90.7868C261.987 90.6012 262.206 90.3742 262.385 90.1057C262.567 89.8339 262.694 89.5224 262.767 89.171H264C263.908 89.6914 263.738 90.1571 263.493 90.568C263.248 90.979 262.943 91.3287 262.578 91.617C262.214 91.9021 261.805 92.1192 261.35 92.2683C260.9 92.4175 260.417 92.492 259.904 92.492C259.035 92.492 258.263 92.2799 257.587 91.8557C256.911 91.4314 256.379 90.8282 255.991 90.046C255.603 89.2638 255.409 88.3358 255.409 87.2619C255.409 86.1881 255.603 85.26 255.991 84.4778C256.379 83.6956 256.911 83.0924 257.587 82.6682C258.263 82.2439 259.035 82.0318 259.904 82.0318C260.417 82.0318 260.9 82.1064 261.35 82.2555C261.805 82.4047 262.214 82.6234 262.578 82.9118C262.943 83.1968 263.248 83.5448 263.493 83.9558C263.738 84.3635 263.908 84.8292 264 85.3528ZM268.817 90.5631V84.0006H269.93V90.5631H268.817ZM266.092 87.8386V86.725H272.655V87.8386H266.092ZM278.304 92.492C277.621 92.492 277.018 92.3711 276.494 92.1291C275.974 91.8839 275.568 91.5474 275.276 91.1199C274.984 90.689 274.84 90.1985 274.843 89.6483C274.84 89.2174 274.925 88.8197 275.097 88.4551C275.269 88.0872 275.505 87.7806 275.803 87.5354C276.104 87.2868 276.441 87.1294 276.812 87.0631V87.0034C276.325 86.8775 275.937 86.604 275.649 86.1831C275.36 85.7589 275.218 85.2766 275.221 84.7364C275.218 84.2193 275.349 83.757 275.614 83.3493C275.879 82.9416 276.244 82.6201 276.708 82.3848C277.175 82.1495 277.707 82.0318 278.304 82.0318C278.894 82.0318 279.421 82.1495 279.885 82.3848C280.349 82.6201 280.713 82.9416 280.978 83.3493C281.247 83.757 281.383 84.2193 281.386 84.7364C281.383 85.2766 281.235 85.7589 280.944 86.1831C280.655 86.604 280.272 86.8775 279.795 87.0034V87.0631C280.163 87.1294 280.494 87.2868 280.789 87.5354C281.084 87.7806 281.32 88.0872 281.495 88.4551C281.671 88.8197 281.761 89.2174 281.764 89.6483C281.761 90.1985 281.611 90.689 281.316 91.1199C281.025 91.5474 280.619 91.8839 280.098 92.1291C279.581 92.3711 278.983 92.492 278.304 92.492ZM278.304 91.3983C278.764 91.3983 279.162 91.3237 279.497 91.1746C279.832 91.0254 280.09 90.815 280.272 90.5432C280.455 90.2714 280.547 89.9532 280.551 89.5886C280.547 89.2042 280.448 88.8644 280.252 88.5695C280.057 88.2745 279.79 88.0425 279.452 87.8734C279.117 87.7044 278.734 87.6199 278.304 87.6199C277.869 87.6199 277.482 87.7044 277.14 87.8734C276.802 88.0425 276.535 88.2745 276.34 88.5695C276.148 88.8644 276.053 89.2042 276.056 89.5886C276.053 89.9532 276.141 90.2714 276.32 90.5432C276.502 90.815 276.762 91.0254 277.1 91.1746C277.439 91.3237 277.84 91.3983 278.304 91.3983ZM278.304 86.5659C278.668 86.5659 278.991 86.493 279.273 86.3472C279.558 86.2013 279.782 85.9975 279.944 85.7357C280.107 85.4738 280.189 85.1672 280.193 84.8159C280.189 84.4712 280.108 84.1713 279.949 83.9161C279.79 83.6575 279.57 83.4587 279.288 83.3195C279.006 83.1769 278.678 83.1057 278.304 83.1057C277.922 83.1057 277.589 83.1769 277.304 83.3195C277.019 83.4587 276.799 83.6575 276.643 83.9161C276.487 84.1713 276.411 84.4712 276.414 84.8159C276.411 85.1672 276.489 85.4738 276.648 85.7357C276.81 85.9975 277.034 86.2013 277.319 86.3472C277.604 86.493 277.932 86.5659 278.304 86.5659ZM286.195 87.2619C286.195 88.5148 286.031 89.6682 285.703 90.7222C285.378 91.7728 284.912 92.7406 284.306 93.6256H283.271C283.51 93.2974 283.732 92.8931 283.938 92.4125C284.146 91.9352 284.329 91.4116 284.485 90.8415C284.64 90.2681 284.761 89.6765 284.847 89.0666C284.937 88.4535 284.982 87.8519 284.982 87.2619C284.982 86.4731 284.905 85.6727 284.753 84.8607C284.601 84.0486 284.395 83.2946 284.137 82.5986C283.878 81.9026 283.59 81.3358 283.271 80.8983H284.306C284.912 81.7832 285.378 82.7527 285.703 83.8067C286.031 84.8573 286.195 86.0091 286.195 87.2619Z" fill="#FFEFC8"/>
<path d="M12 0.5H108.313C110.736 0.500192 112.426 2.90246 111.607 5.18262L101.551 33.1826C101.052 34.5725 99.7336 35.4999 98.2568 35.5H0.5V12C0.5 5.64873 5.64873 0.5 12 0.5Z" fill="url(#paint1_linear_11798_5099)" stroke="url(#paint2_linear_11798_5099)"/>
<path d="M27.7318 15.36H32.1158V13.36C30.9958 13.456 29.7958 13.504 28.5318 13.504L28.0198 12C31.4758 12 34.3878 11.616 36.7718 10.864L37.6038 12.272C36.5158 12.656 35.2518 12.96 33.8118 13.168V15.36H38.2278V16.96H33.8118V18.864H37.2998V25.664H35.6518V24.912H30.4038V25.664H28.7558V18.864H32.1158V16.96H27.7318V15.36ZM30.4038 23.344H35.6518V20.432H30.4038V23.344ZM25.1078 10.992C26.1638 11.68 27.0758 12.384 27.8278 13.088L26.6918 14.208C26.0518 13.552 25.1558 12.832 23.9718 12.064L25.1078 10.992ZM24.7398 14.8C25.8278 15.584 26.7558 16.368 27.4918 17.152L26.3398 18.304C25.6838 17.568 24.7558 16.784 23.5718 15.936L24.7398 14.8ZM26.1638 19.12L27.6838 19.728C27.0278 21.76 26.3078 23.68 25.5078 25.472L23.8278 24.736C24.7238 22.912 25.5078 21.04 26.1638 19.12ZM40.2278 11.808H46.2438V13.392H40.2278V11.808ZM39.6358 16.112H46.8198V17.744H43.2358C42.7078 19.824 42.2438 21.36 41.8438 22.384C42.8518 22.16 43.8438 21.856 44.8198 21.504C44.4678 20.736 44.1158 20.032 43.7638 19.36L45.1558 18.688C45.8598 20 46.5638 21.456 47.2358 23.056C48.3078 21.2 48.8518 18.736 48.8838 15.696V15.568H46.9158V13.968H48.8838V10.896H50.5478V13.968H53.9878C53.9878 19.248 53.9078 22.512 53.7638 23.76C53.5718 24.944 52.7398 25.536 51.2678 25.536C51.0118 25.536 50.5798 25.504 49.9398 25.456L49.5558 24C50.1158 24.032 50.5958 24.064 51.0118 24.064C51.6838 24.064 52.0678 23.712 52.1958 23.008C52.2918 22.288 52.3398 19.808 52.3718 15.568H50.5478V15.696C50.4998 20.288 49.3958 23.648 47.2198 25.776L45.9558 24.672C46.4198 24.224 46.8198 23.712 47.1718 23.152L45.7958 23.856C45.6678 23.504 45.5398 23.184 45.4118 22.88C43.7318 23.456 41.9238 23.904 40.0038 24.256L39.6198 22.688C39.7798 22.64 39.8918 22.592 39.9558 22.544C40.3718 21.936 40.9318 20.336 41.6198 17.744H39.6358V16.112ZM60.9638 11.92V23.984H59.3638V23.024H57.6198V24.368H55.9878V11.92H60.9638ZM57.6198 21.472H59.3638V18.16H57.6198V21.472ZM57.6198 16.608H59.3638V13.44H57.6198V16.608ZM63.4118 16.768C64.3718 18.272 65.1238 19.568 65.6358 20.672L64.2438 21.632C63.6998 20.448 62.9638 19.104 62.0358 17.632L63.4118 16.768ZM66.8518 25.504H63.9878L63.6198 23.888C64.5478 23.952 65.4278 23.984 66.2598 23.984C66.6118 23.984 66.8038 23.792 66.8038 23.408V15.232H61.5558V13.616H66.8038V10.992H68.4998V13.616H70.2278V15.232H68.4998V23.824C68.4998 24.944 67.9398 25.504 66.8518 25.504ZM75.5878 15.072H82.0838V22.912H75.5878V15.072ZM80.5318 21.44V19.712H77.1558V21.44H80.5318ZM77.1558 18.272H80.5318V16.544H77.1558V18.272ZM83.6358 25.536H82.3558L81.9078 23.968L83.2998 24.016C83.6998 24.016 83.9078 23.728 83.9078 23.168V13.056H77.9558V11.52H85.5398V23.632C85.5398 24.896 84.8998 25.536 83.6358 25.536ZM72.2278 13.52H73.8598V25.68H72.2278V13.52ZM75.0598 10.688C75.7958 11.552 76.4358 12.496 76.9958 13.536L75.4918 14.32C74.8998 13.2 74.2438 12.224 73.5398 11.376L75.0598 10.688Z" fill="#EA2525"/>
<defs>
<linearGradient id="paint0_linear_11798_5099" x1="194.643" y1="7.05225" x2="194.643" y2="115.052" gradientUnits="userSpaceOnUse">
<stop stop-color="#EA2525"/>
<stop offset="1" stop-color="#FE4C35"/>
</linearGradient>
<linearGradient id="paint1_linear_11798_5099" x1="109.607" y1="6.71084" x2="-3.52825" y2="26.6503" gradientUnits="userSpaceOnUse">
<stop stop-color="#F3A34D"/>
<stop offset="1" stop-color="#FFD45E"/>
</linearGradient>
<linearGradient id="paint2_linear_11798_5099" x1="55.3015" y1="1.37634e-06" x2="55.3015" y2="36" gradientUnits="userSpaceOnUse">
<stop stop-color="white" stop-opacity="0.63"/>
<stop offset="1" stop-color="white" stop-opacity="0"/>
</linearGradient>
</defs>
</svg>
